<svg width="122" height="18" viewBox="0 0 122 18" fill="none" xmlns="http://www.w3.org/2000/svg">
<path d="M14.1999 11.999C14.1292 11.7409 13.3726 11.8522 12.7503 11.7939C12.1845 11.7426 11.4579 11.6401 10.5846 11.3378C9.76781 11.0549 8.97756 10.7296 8.28808 10.3566C8.28808 10.3566 8.00875 10.2099 7.98046 10.1939C7.92389 10.1586 7.87792 10.1338 7.82135 10.0985C7.78776 10.079 7.73649 10.0472 7.6976 10.0313C7.64987 10.0118 7.61628 9.98533 7.57561 9.95881C7.53319 9.93229 7.47484 9.90577 7.43242 9.87926C7.36877 9.84036 7.32988 9.81031 7.26977 9.76611C7.23264 9.73959 7.21496 9.73075 7.16369 9.7007C7.13364 9.68302 7.0806 9.65296 7.05408 9.63529C6.99928 9.59816 6.96392 9.5681 6.90912 9.52921C6.87553 9.50623 6.85078 9.49032 6.81012 9.46557C6.76945 9.44082 6.73233 9.40899 6.69697 9.38424C6.67752 9.3701 6.64924 9.35242 6.63156 9.33474C6.5909 9.29585 6.55023 9.26049 6.50957 9.2269C6.47068 9.19861 6.43355 9.16149 6.39466 9.1332C6.36991 9.11552 6.32925 9.08016 6.3045 9.06249C6.24262 9.01829 6.20373 8.9847 6.14185 8.93873C6.10119 8.90868 6.0676 8.86979 6.0287 8.8415C5.98451 8.80791 5.94385 8.77078 5.89611 8.73719C5.86606 8.71598 5.83247 8.68946 5.80949 8.66648C5.77943 8.63112 5.75114 8.60637 5.72109 8.57101C5.69811 8.54626 5.65391 8.51797 5.62916 8.49146C5.59027 8.44195 5.53723 8.39069 5.48596 8.35179C5.45591 8.3235 5.44707 8.31113 5.43469 8.29522C5.42585 8.28284 5.41524 8.2687 5.39049 8.24218C5.36574 8.21743 5.3569 8.21036 5.3463 8.19975C5.33569 8.18915 5.32331 8.17854 5.28972 8.14495C5.27912 8.13434 5.26144 8.10959 5.24376 8.08661C5.22785 8.06539 5.2137 8.04418 5.2031 8.03357C5.17304 8.00175 5.15183 7.97877 5.13061 7.95755C5.1147 7.94164 5.09879 7.92396 5.07934 7.90275C5.06697 7.89037 5.05813 7.87446 5.04752 7.86032C5.03868 7.84617 5.02807 7.83203 5.01747 7.81965C4.99979 7.80021 4.98565 7.80728 4.98211 7.80905C4.9715 7.81612 4.9662 7.83733 4.98034 7.86385C4.99625 7.89391 5.01924 7.9275 5.03338 7.94694C5.03691 7.95048 5.03868 7.95401 5.04045 7.95755C5.04575 7.96639 5.05106 7.977 5.05636 7.98584C5.0652 7.99998 5.07227 8.01589 5.08288 8.03003C5.10586 8.06186 5.13061 8.08661 5.15536 8.11136C5.16244 8.1202 5.17127 8.12727 5.17835 8.13611C5.19426 8.15379 5.20663 8.17147 5.22078 8.19091C5.23492 8.21036 5.24729 8.22981 5.26674 8.24925C5.27558 8.25809 5.28265 8.26693 5.28796 8.27754C5.29503 8.28815 5.30387 8.29875 5.31271 8.30759C5.32685 8.32174 5.34099 8.33588 5.35337 8.35002C5.37635 8.37301 5.39933 8.39776 5.42232 8.4172C5.43999 8.43135 5.45767 8.45079 5.47535 8.46847C5.52132 8.52328 5.57259 8.57808 5.61325 8.63112C5.63623 8.66117 5.68043 8.68416 5.70695 8.7036C5.737 8.72482 5.75998 8.76548 5.78297 8.79377C5.80065 8.81498 5.83954 8.85034 5.85899 8.87332C5.90495 8.93343 5.93677 8.96525 5.99865 9.00945C6.03578 9.03597 6.06406 9.06072 6.09235 9.09784C6.10826 9.11906 6.1613 9.17033 6.18074 9.19508C6.23201 9.25872 6.25323 9.31883 6.24616 9.3206C6.2108 9.32944 6.12771 9.25519 6.07821 9.22336C6.03754 9.19685 6.03047 9.18447 5.99335 9.15619C5.98451 9.14911 5.9244 9.10492 5.90142 9.0784C5.8855 9.06249 5.83954 9.01475 5.8254 8.99707C5.75645 8.90868 5.7317 8.90338 5.65214 8.82559C5.5938 8.76902 5.52309 8.71775 5.46475 8.66648C5.44883 8.6488 5.43116 8.63112 5.41524 8.61167C5.3958 8.59223 5.37281 8.57631 5.3569 8.55687C5.33039 8.52328 5.29503 8.45787 5.26321 8.43488C5.22961 8.41013 5.20486 8.38715 5.17127 8.36063C5.1589 8.35179 5.14829 8.33765 5.13592 8.32704C5.12001 8.31467 5.10056 8.30229 5.08818 8.28638C5.04929 8.23688 5.0104 8.18738 4.9715 8.13611C4.95382 8.11313 4.9273 8.09191 4.90963 8.06893C4.87073 8.01589 4.84068 7.96109 4.80178 7.91159C4.74875 7.84087 4.67096 7.79137 4.61969 7.72065C4.56665 7.64817 4.53483 7.56331 4.48356 7.48729C4.46235 7.4537 4.42876 7.43072 4.40401 7.40066C4.38986 7.38122 4.38279 7.36177 4.36865 7.34055C4.34213 7.29989 4.31031 7.261 4.28379 7.22034C4.24843 7.16907 4.22368 7.11073 4.18832 7.05769C4.18302 7.05062 4.17064 7.01349 4.14766 6.98521C4.12645 6.95869 4.107 6.92687 4.08402 6.88797C4.05927 6.84908 4.04689 6.82433 4.03098 6.79781C4.0133 6.77129 4.00269 6.74654 3.99032 6.72709C3.97971 6.70765 3.95319 6.67406 3.94435 6.65991C3.91253 6.61041 3.90369 6.58566 3.86833 6.5397C3.84712 6.51141 3.8259 6.48843 3.80646 6.4955C3.79231 6.50611 3.79762 6.52379 3.79939 6.53616C3.8153 6.57682 3.8153 6.56975 3.83121 6.5998C3.85773 6.64931 3.86657 6.67229 3.89662 6.71649C3.91076 6.7377 3.93375 6.7872 3.95143 6.81372C3.97087 6.84024 3.98855 6.87206 4.00093 6.89504C4.01507 6.91803 4.03452 6.98167 4.05573 7.00819C4.06987 7.02764 4.09109 7.06653 4.10523 7.09305C4.13352 7.14785 4.16888 7.19205 4.19716 7.23625C4.21661 7.27161 4.23606 7.30873 4.2555 7.34409C4.2944 7.40243 4.33859 7.45724 4.37749 7.51558C4.40047 7.55801 4.42345 7.59867 4.44644 7.6411C4.46942 7.67469 4.49947 7.70474 4.52246 7.73833C4.54897 7.78076 4.56489 7.82496 4.5914 7.86562C4.61262 7.89744 4.64091 7.92926 4.66212 7.96109C4.69925 8.01589 4.73107 8.06893 4.76996 8.12196C4.79118 8.15025 4.81946 8.175 4.84068 8.20329C4.87073 8.24218 4.89371 8.28992 4.92377 8.3235C4.95913 8.3571 4.96973 8.37831 4.99802 8.41013C5.04045 8.4614 5.14476 8.60991 5.12708 8.60991C5.0652 8.61874 4.94675 8.48262 4.89725 8.43488C4.85836 8.39599 4.81593 8.36947 4.78764 8.33235C4.74875 8.27931 4.71869 8.2192 4.6798 8.16616C4.66566 8.14672 4.64444 8.13257 4.62853 8.11489C4.60201 8.07954 4.57549 8.04241 4.54367 8.01059C4.5313 7.99821 4.51715 7.9876 4.50478 7.97346C4.45704 7.91158 4.41638 7.8444 4.36865 7.78076C4.3492 7.75424 4.32268 7.73126 4.30324 7.70474C4.28733 7.68353 4.28025 7.66231 4.26611 7.63933C4.24666 7.60927 4.22191 7.58099 4.20423 7.5527C4.19009 7.53149 4.18125 7.5085 4.16711 7.48729C4.14236 7.4484 4.107 7.41481 4.08225 7.37591C4.06103 7.34409 4.05573 7.30166 4.03452 7.26984C3.98148 7.18852 3.92314 7.10542 3.87187 7.02587C3.85773 7.00465 3.85242 6.98167 3.84005 6.96046C3.79762 6.89504 3.75872 6.82256 3.71629 6.75715C3.70038 6.7324 3.69508 6.70588 3.67917 6.68113C3.65972 6.65107 3.62967 6.62809 3.61199 6.5998C3.59785 6.57682 3.59077 6.55207 3.58017 6.52732C3.56426 6.49373 3.54304 6.45837 3.52536 6.42655C3.51475 6.4071 3.50768 6.38589 3.49708 6.36644C3.44581 6.28865 3.40514 6.2038 3.36448 6.11717C3.34327 6.0712 3.31145 6.02877 3.29023 5.98458C3.26548 5.93331 3.2425 5.88204 3.21952 5.83254C3.20714 5.79895 3.19477 5.76536 3.18416 5.73177C3.15941 5.67873 3.12228 5.63453 3.09753 5.57973C3.08162 5.5426 3.07278 5.50724 3.05687 5.47719C3.04803 5.45774 3.02858 5.44183 3.01621 5.45067C3.00383 5.45951 3.0003 5.47542 3.00914 5.50548C3.02505 5.56028 3.05687 5.62393 3.07101 5.65575C3.0993 5.71939 3.11344 5.7848 3.1435 5.84845C3.15941 5.88381 3.18239 5.9174 3.1983 5.95099C3.22659 6.0111 3.25311 6.07297 3.27962 6.12954C3.29554 6.16313 3.30791 6.19496 3.32559 6.22678C3.33443 6.24269 3.34857 6.26214 3.35741 6.28158C3.37509 6.32224 3.38039 6.36467 3.39984 6.40357C3.41929 6.44423 3.45111 6.47782 3.46879 6.51671C3.56426 6.72179 3.66149 6.91626 3.77817 7.09835C3.80999 7.14962 3.82767 7.2115 3.85949 7.261C3.89308 7.31227 3.93905 7.35293 3.97264 7.40597C4.00093 7.4484 4.00623 7.50674 4.03275 7.5527C4.06987 7.62165 4.11938 7.67999 4.16004 7.74363C4.17064 7.76131 4.17418 7.78253 4.18656 7.80021C4.20247 7.82496 4.22191 7.84971 4.23782 7.87446C4.25904 7.90805 4.26965 7.94694 4.29263 7.977C4.31738 8.01059 4.35274 8.03887 4.37749 8.07246C4.40754 8.11489 4.42876 8.16263 4.46058 8.20506C4.48179 8.23511 4.51715 8.25456 4.53837 8.28461C4.57373 8.33058 4.69571 8.49146 4.73107 8.53742C4.78587 8.60637 4.88134 8.70714 4.92554 8.7973C4.93968 8.82559 4.98741 8.891 4.97681 8.90514C4.95029 8.92282 4.83007 8.79023 4.80886 8.77078C4.75759 8.72128 4.71339 8.65587 4.67096 8.5993C4.66035 8.58692 4.54367 8.47378 4.53483 8.45963C4.52422 8.44549 4.51185 8.42781 4.50124 8.41367C4.46942 8.36593 4.44997 8.30759 4.41461 8.26163C4.40047 8.24218 4.37926 8.22804 4.36335 8.21036C4.33683 8.175 4.31738 8.13434 4.29263 8.09898C4.25197 8.04241 4.19893 7.99291 4.1565 7.93634C4.11054 7.87446 4.07871 7.80198 4.03275 7.7401C4.00977 7.71004 3.98148 7.68176 3.9585 7.64994C3.94966 7.63579 3.94435 7.62165 3.93551 7.60574C3.9196 7.58099 3.89662 7.5527 3.88425 7.52442C3.87187 7.4979 3.8648 7.47491 3.84889 7.45193C3.80115 7.37768 3.75342 7.29812 3.70569 7.22387C3.68447 7.19028 3.6721 7.15316 3.65088 7.12134C3.61553 7.06653 3.57133 7.01703 3.5342 6.96046C3.49177 6.89504 3.46879 6.81549 3.42636 6.74831C3.39807 6.70411 3.36625 6.66345 3.33797 6.62102C3.30791 6.57329 3.292 6.51848 3.26548 6.46898C3.2425 6.42478 3.20891 6.38589 3.18769 6.34169C3.16471 6.29396 3.1488 6.24623 3.12582 6.19849C3.11344 6.17197 3.094 6.14722 3.08162 6.11894C3.06748 6.08535 3.06394 6.05176 3.04803 6.01817C3.0056 5.92624 2.94372 5.83961 2.90129 5.74945C2.87124 5.68403 2.84295 5.61685 2.8182 5.54791C2.80406 5.51078 2.79876 5.47542 2.78108 5.44006C2.74395 5.35697 2.69622 5.26858 2.65909 5.18549C2.64318 5.14129 2.62727 5.09709 2.61136 5.05289C2.60782 5.04052 2.60606 5.02814 2.60252 5.01577C2.58484 4.97687 2.56186 4.93798 2.54771 4.89909C2.53357 4.85312 2.51943 4.80892 2.50529 4.76296C2.44694 4.61622 2.39391 4.45004 2.33734 4.29623C2.33026 4.26795 2.3285 4.23436 2.31789 4.2043C2.2896 4.12652 2.25955 4.04696 2.23126 3.96917C2.21535 3.92851 2.17646 3.94265 2.1853 3.98332C2.19767 4.03812 2.20474 4.0505 2.21358 4.09293C2.21889 4.11414 2.22242 4.13712 2.22596 4.15834C2.23126 4.18486 2.2454 4.21138 2.25248 4.23613C2.26662 4.28209 2.26839 4.32982 2.2843 4.37402C2.30728 4.43767 2.33026 4.49777 2.34971 4.56319C2.35678 4.59501 2.36209 4.6286 2.36916 4.66042C2.378 4.69048 2.39037 4.7223 2.40098 4.74882C2.43457 4.82837 2.46462 4.90616 2.49291 4.98571C2.50352 5.02991 2.51589 5.07588 2.52827 5.12184C2.53888 5.14659 2.55655 5.17311 2.56893 5.19786C2.57954 5.21908 2.58131 5.24029 2.59014 5.26327C2.61136 5.31454 2.62904 5.36581 2.65202 5.41708C2.67147 5.45951 2.69445 5.50194 2.71036 5.54791C2.71743 5.56912 2.71743 5.58857 2.72627 5.60978C2.77577 5.74414 2.82881 5.88557 2.88715 6.0111C2.90129 6.04292 2.90483 6.07651 2.92074 6.10833C2.93312 6.13485 2.94903 6.16313 2.9614 6.18965C2.96671 6.20733 2.97378 6.22324 2.97908 6.24092C2.99676 6.27805 3.02681 6.30987 3.04449 6.347C3.094 6.4513 3.13819 6.5503 3.20007 6.64047C3.25841 6.72356 3.28316 6.83317 3.32559 6.9304C3.3468 6.97637 3.37509 7.01703 3.39984 7.05769C3.41222 7.07891 3.42106 7.10366 3.43166 7.12487C3.45995 7.17614 3.47586 7.22034 3.50945 7.2663C3.53597 7.30343 3.5342 7.31227 3.55718 7.36354C3.56426 7.37945 3.58901 7.47668 3.5837 7.47668C3.57486 7.48199 3.52713 7.4537 3.50945 7.43602C3.48824 7.41127 3.45288 7.37768 3.42813 7.32464C3.41575 7.29812 3.391 7.25216 3.37863 7.22564C3.34857 7.16023 3.2973 7.10542 3.25841 7.04708C3.23719 7.01173 3.22482 6.9746 3.20537 6.93571C3.17355 6.86676 3.13642 6.79781 3.10283 6.72709C3.08869 6.69881 3.06748 6.66875 3.05157 6.64223C3.03389 6.61572 3.02505 6.58566 3.00737 6.55738C2.96847 6.49727 2.92604 6.43009 2.89599 6.36467C2.87301 6.31694 2.8624 6.26744 2.83942 6.22147C2.83235 6.20556 2.81997 6.19142 2.81113 6.17728C2.79522 6.15253 2.78992 6.12601 2.77577 6.09949C2.75809 6.06236 2.73334 6.02877 2.71567 5.98988C2.68208 5.91563 2.66086 5.83784 2.62727 5.76536C2.61136 5.73177 2.58307 5.70171 2.56716 5.66812C2.54241 5.61509 2.54064 5.54967 2.51589 5.49487C2.45225 5.3499 2.378 5.19963 2.32142 5.04759C2.31258 5.02284 2.31082 4.99279 2.30198 4.96627C2.27899 4.90086 2.2454 4.83898 2.22242 4.77357C2.21181 4.74351 2.20828 4.71699 2.19767 4.68694C2.18176 4.64274 2.16055 4.59678 2.14463 4.55081C2.1411 4.5349 2.13933 4.52076 2.13226 4.50485C2.11281 4.46242 2.10044 4.41292 2.08099 4.36872C2.07038 4.34574 2.05447 4.32275 2.04563 4.298C2.02972 4.2538 2.03502 4.199 2.01911 4.15657C1.9979 4.09469 1.96961 4.02751 1.9484 3.96741C1.93602 3.93205 1.93249 3.89669 1.92011 3.86133C1.90597 3.82067 1.89006 3.7747 1.87415 3.73404C1.85824 3.69161 1.86 3.64565 1.84586 3.60145C1.83525 3.56786 1.82111 3.5325 1.8105 3.50068C1.78929 3.44057 1.78045 3.37693 1.75746 3.32212C1.75393 3.31152 1.75039 3.30091 1.74686 3.29207C1.74155 3.27616 1.73095 3.26201 1.71504 3.26555C1.69736 3.27085 1.69736 3.29207 1.69912 3.30798C1.70266 3.35218 1.71857 3.39284 1.73095 3.4282C1.74509 3.46532 1.75216 3.50598 1.76277 3.54134C1.76807 3.56432 1.76807 3.58908 1.77338 3.61383C1.78045 3.64918 1.79459 3.68277 1.80343 3.71636C1.8105 3.75172 1.80697 3.78354 1.81404 3.81183C1.83702 3.88608 1.86177 3.97094 1.88652 4.04166C1.89713 4.07878 1.8989 4.12121 1.9095 4.15303C1.92365 4.19016 1.93779 4.22905 1.95017 4.26618C1.96254 4.298 1.96431 4.32806 1.97845 4.35811C1.9926 4.38993 2.00851 4.42352 2.01911 4.45888C2.03326 4.50485 2.03149 4.55081 2.0474 4.59324C2.07215 4.66396 2.10574 4.73114 2.13049 4.80009C2.13756 4.82484 2.1411 4.85135 2.14994 4.8761C2.17115 4.93621 2.1853 4.99809 2.20651 5.0582C2.23657 5.14306 2.27723 5.22438 2.30728 5.30747C2.33734 5.39056 2.34087 5.4878 2.37623 5.56558C2.39391 5.60271 2.43103 5.62569 2.44694 5.66282C2.45755 5.6858 2.45578 5.71409 2.46286 5.74237C2.4717 5.7742 2.48761 5.80425 2.49821 5.83431C2.50529 5.86082 2.51236 5.88734 2.51943 5.91386C2.53004 5.94568 2.55125 5.97574 2.56539 6.00579C2.58838 6.05529 2.59898 6.10656 2.62727 6.14899C2.64849 6.18081 2.675 6.21264 2.69268 6.24976C2.71213 6.29042 2.7192 6.33462 2.73688 6.37705C2.76517 6.43893 2.79876 6.49904 2.82174 6.56445C2.84295 6.62279 2.85179 6.68643 2.88008 6.7377C2.90837 6.78897 2.94372 6.83494 2.97201 6.8862C2.98969 6.92333 3.00737 6.96222 3.02505 6.99935C3.03919 7.03117 3.06748 7.05769 3.08516 7.08951C3.10637 7.12841 3.12759 7.16907 3.14526 7.20973C3.15941 7.23978 3.16471 7.26807 3.18062 7.29459C3.20537 7.33525 3.22482 7.36707 3.25134 7.40773C3.27432 7.44309 3.30084 7.48906 3.31675 7.53149C3.32913 7.56331 3.3415 7.5969 3.36095 7.62342C3.38039 7.6517 3.40691 7.67469 3.42282 7.70474C3.43874 7.7348 3.46172 7.83026 3.45288 7.83557C3.43166 7.84264 3.37332 7.78606 3.35741 7.76662C3.31145 7.71004 3.28846 7.63403 3.24603 7.57392C3.20184 7.5085 3.17178 7.47315 3.13642 7.39889C3.11521 7.35647 3.07985 7.27868 3.0551 7.23978C3.03212 7.20443 3.0003 7.17084 2.98085 7.13017C2.96671 7.09658 2.95964 7.05769 2.94372 7.0241C2.92074 6.97637 2.87654 6.94455 2.85356 6.89681C2.82704 6.84201 2.81644 6.78543 2.78815 6.73417C2.77577 6.70941 2.75633 6.68113 2.74572 6.65638C2.72981 6.62279 2.72274 6.59097 2.70683 6.55914C2.675 6.49196 2.62904 6.43539 2.59722 6.36821C2.56539 6.29926 2.54771 6.22678 2.51413 6.15606C2.49645 6.11894 2.46639 6.08711 2.44871 6.04999C2.42573 6.00049 2.41335 5.94922 2.3886 5.89795C2.37446 5.8679 2.35325 5.83784 2.3391 5.80779C2.31789 5.76359 2.31082 5.71762 2.29137 5.67166C2.2454 5.57089 2.19767 5.46481 2.15347 5.36228C2.13579 5.32338 2.13226 5.28272 2.11458 5.24383C2.0969 5.20847 2.07922 5.17488 2.06154 5.14129C2.02088 5.05113 2.00851 4.94682 1.96784 4.85666C1.94663 4.81069 1.92188 4.76826 1.9042 4.71876C1.87591 4.64097 1.86531 4.56142 1.83702 4.48363C1.79459 4.36341 1.75923 4.23789 1.71504 4.11768C1.70266 4.08055 1.70089 4.04696 1.68675 4.00983C1.67437 3.97448 1.66023 3.93912 1.64786 3.90376C1.63902 3.87547 1.63371 3.83481 1.62487 3.79769C1.59305 3.69515 1.55946 3.59438 1.52764 3.49184C1.52057 3.46709 1.5188 3.42289 1.50996 3.39107C1.50466 3.37339 1.49582 3.35218 1.48874 3.33627C1.47991 3.31328 1.47991 3.29207 1.47283 3.26909C1.44985 3.19483 1.42864 3.10821 1.40565 3.03396C1.39858 3.01097 1.39681 2.97738 1.38974 2.9491C1.35615 2.84302 1.34024 2.7122 1.29781 2.6132C1.29074 2.59375 1.27836 2.5743 1.25892 2.57784C1.23947 2.58314 1.24477 2.60436 1.24654 2.62204C1.25185 2.67154 1.26953 2.7122 1.27836 2.75286C1.2819 2.77054 1.2819 2.79529 1.28367 2.81827C1.28544 2.83595 1.28897 2.85893 1.29428 2.87838C1.31372 2.94202 1.33671 3.01628 1.35615 3.07815C1.36322 3.10821 1.35615 3.15417 1.36499 3.18953C1.39151 3.2903 1.41272 3.41052 1.44808 3.50068C1.48167 3.58377 1.48698 3.68277 1.51173 3.77117C1.5188 3.81006 1.52233 3.84896 1.52587 3.88785C1.53117 3.92498 1.55239 3.95149 1.56476 3.98332C1.5736 4.0063 1.57184 4.02751 1.58068 4.0505C1.60012 4.11414 1.61603 4.17779 1.63902 4.2432C1.65493 4.2874 1.67968 4.32982 1.69559 4.37402C1.70266 4.39347 1.69912 4.41115 1.7062 4.43413C1.7168 4.47833 1.72564 4.52253 1.73802 4.56672C1.76984 4.65512 1.79989 4.75058 1.83172 4.83721C1.8494 4.88671 1.8547 4.93445 1.87238 4.98041C1.94133 5.16958 2.01204 5.35874 2.08099 5.54791C2.0916 5.59034 2.10397 5.631 2.11458 5.67343C2.13049 5.71586 2.15524 5.75121 2.17292 5.79011C2.1959 5.83961 2.20298 5.89088 2.22065 5.94215C2.24187 6.00226 2.27192 6.04999 2.29491 6.11363C2.30551 6.14369 2.31612 6.17728 2.33026 6.20556C2.34087 6.22678 2.36032 6.24799 2.37093 6.27098C2.3886 6.3081 2.39214 6.35583 2.40982 6.39296C2.4275 6.43009 2.45932 6.46191 2.4823 6.4955C2.50175 6.52909 2.50352 6.56975 2.5212 6.60688C2.54771 6.66522 2.58131 6.71649 2.60606 6.77836C2.61666 6.80311 2.62197 6.8261 2.63257 6.85085C2.64495 6.87913 2.66616 6.90565 2.68031 6.93394C2.68031 6.93394 2.68031 6.93394 2.68031 6.93747C2.68031 6.94101 2.68384 6.94631 2.68561 6.95338C2.68915 6.96576 2.69268 6.9799 2.69622 6.99051C2.70152 7.00642 2.72097 7.03648 2.72804 7.04708C2.73334 7.05239 2.74572 7.0683 2.75633 7.08067C2.76163 7.08598 2.76517 7.09128 2.77047 7.09835C2.79522 7.13725 2.79876 7.19382 2.8182 7.23625C2.83942 7.27868 2.87478 7.31227 2.89599 7.35647C2.9119 7.39006 2.92074 7.47315 2.90129 7.47491C2.81644 7.47491 2.80936 7.3547 2.78108 7.29282C2.75809 7.24332 2.72274 7.20443 2.69799 7.15669C2.69268 7.14785 2.68384 7.12841 2.67854 7.10896C2.67324 7.09305 2.66616 7.07537 2.65909 7.06123C2.64849 7.03824 2.64849 7.04178 2.63965 7.02587C2.63257 7.00996 2.60782 6.9799 2.60075 6.96576C2.60075 6.96576 2.60075 6.96399 2.60075 6.96222C2.56893 6.90919 2.54595 6.83494 2.52296 6.79958C2.51059 6.78013 2.49291 6.75892 2.48053 6.73947C2.45932 6.70588 2.44871 6.66522 2.43103 6.62809C2.41512 6.5945 2.3886 6.56091 2.37269 6.52379C2.35325 6.48136 2.35325 6.42832 2.33203 6.38589C2.32142 6.36291 2.30198 6.33992 2.29137 6.31871C2.26662 6.26921 2.25424 6.21794 2.22949 6.17021C2.21889 6.14722 2.19767 6.12601 2.18706 6.10303C2.16762 6.06236 2.15878 6.01817 2.13756 5.98104C2.0916 5.90149 2.04386 5.81132 2.00674 5.72646C1.98552 5.67696 1.97845 5.62569 1.95547 5.57796C1.93602 5.53553 1.91127 5.4931 1.89183 5.45244C1.87945 5.42592 1.87591 5.39763 1.86531 5.36758C1.84763 5.31985 1.82641 5.27035 1.80873 5.22438C1.79813 5.19079 1.78929 5.12007 1.78045 5.09179C1.76807 5.05643 1.74863 5.01754 1.73271 4.98218C1.70973 4.92914 1.70266 4.87434 1.67791 4.82307C1.66023 4.78241 1.64078 4.73998 1.62487 4.69755C1.6125 4.66219 1.60896 4.63037 1.59482 4.59678C1.58421 4.57203 1.57007 4.54374 1.55946 4.51722C1.54885 4.48717 1.54001 4.4359 1.53117 4.39524C1.51526 4.34927 1.49758 4.30684 1.48344 4.26264C1.47637 4.22905 1.4746 4.15303 1.46576 4.13182C1.4198 3.99392 1.3756 3.84719 1.3314 3.70929C1.31195 3.64565 1.30135 3.582 1.28367 3.52013C1.2766 3.49538 1.2766 3.46355 1.26953 3.4388C1.25715 3.39814 1.23947 3.35748 1.2271 3.31682C1.22002 3.28853 1.21649 3.26025 1.21118 3.23196C1.20411 3.20367 1.18997 3.17362 1.17936 3.14533C1.15284 3.06224 1.1387 2.97385 1.11395 2.89429C1.10511 2.8607 1.10511 2.8165 1.09627 2.78645C1.06445 2.68568 1.05738 2.569 1.02732 2.46469C1.02025 2.43464 1.01495 2.40282 1.00788 2.3763C0.956607 2.18006 0.933625 1.95907 0.875284 1.76991C0.864677 1.73455 0.87882 1.68682 0.868213 1.64792C0.857605 1.60373 0.84523 1.56483 0.831087 1.52594C0.825783 1.50649 0.825783 1.49058 0.820479 1.47113C0.81164 1.43931 0.797497 1.41456 0.779818 1.4181C0.758603 1.42517 0.763907 1.44462 0.763907 1.47113C0.763907 1.51533 0.76921 1.55069 0.77805 1.58782C0.785121 1.61787 0.781586 1.64262 0.788657 1.66914C0.806336 1.73101 0.81164 1.81764 0.822247 1.87245C0.825783 1.89543 0.822247 1.92725 0.827551 1.95377C0.832855 1.98206 0.854069 2.01918 0.861141 2.04924C0.868213 2.0899 0.866445 2.14293 0.873516 2.18713C0.882356 2.22426 0.892963 2.25962 0.901803 2.29497C0.910642 2.32503 0.90357 2.35331 0.91241 2.3816C0.921249 2.41166 0.937161 2.43817 0.942464 2.47176C0.947768 2.50712 0.942464 2.55839 0.949536 2.58845C0.993733 2.7617 1.00788 2.96678 1.05738 3.13296C1.06445 3.15594 1.06445 3.18246 1.06975 3.20544C1.11218 3.35041 1.144 3.50598 1.1882 3.64918C1.19351 3.67217 1.19351 3.69515 1.19881 3.7199C1.21295 3.77117 1.22533 3.82597 1.23594 3.87724C1.24124 3.90022 1.24124 3.92144 1.24654 3.94442C1.26245 3.99746 1.28013 4.04873 1.29781 4.10177C1.30488 4.12652 1.30665 4.15303 1.31195 4.17779C1.31549 4.19723 1.32787 4.22021 1.33317 4.23966C1.34201 4.26972 1.34024 4.298 1.34908 4.32629C1.35615 4.3422 1.36853 4.35988 1.37206 4.37756C1.37913 4.40761 1.38267 4.43943 1.39151 4.46949C1.40389 4.50661 1.42333 4.54197 1.43924 4.57733C1.44985 4.60738 1.44985 4.63744 1.46046 4.66749C1.48167 4.71876 1.50289 4.77887 1.52233 4.83368C1.53825 4.87787 1.54178 4.92384 1.55769 4.9698C1.5683 4.99986 1.58244 5.02991 1.59305 5.05997C1.60012 5.08295 1.60366 5.10593 1.6125 5.13068C1.61957 5.1519 1.64255 5.18725 1.65846 5.21554C1.67084 5.24736 1.66553 5.28979 1.67614 5.32338C1.68675 5.35874 1.7062 5.38703 1.7168 5.41885C1.72741 5.45067 1.72741 5.48603 1.73625 5.51962C1.74509 5.54437 1.76277 5.56912 1.77338 5.59387C1.78398 5.62216 1.79282 5.65044 1.80343 5.67696C1.8105 5.69464 1.82641 5.71409 1.83525 5.73177C1.85116 5.76359 1.86354 5.79895 1.87591 5.83254C1.89536 5.88027 1.89713 5.93861 1.91127 5.99165C1.91481 6.00756 1.91481 6.04468 1.9042 6.04822C1.88299 6.05176 1.85824 6.01817 1.84232 5.99695C1.81757 5.96159 1.79282 5.92093 1.77338 5.87673C1.7663 5.86082 1.76277 5.84491 1.75746 5.82723C1.74332 5.79188 1.73271 5.75121 1.71504 5.71409C1.7062 5.69287 1.69028 5.66812 1.68321 5.64337C1.67084 5.60801 1.67614 5.56735 1.66377 5.5373C1.65316 5.51255 1.63194 5.49133 1.62134 5.46658C1.6125 5.4436 1.60896 5.41885 1.59835 5.39587C1.58598 5.36758 1.5683 5.34283 1.55416 5.31631C1.54355 5.29156 1.54355 5.26504 1.53471 5.23499C1.5241 5.19963 1.5135 5.16427 1.49935 5.13245C1.48344 5.09886 1.46399 5.06527 1.44985 5.03168C1.44278 5.01223 1.43924 4.99455 1.43394 4.97511C1.4251 4.95036 1.41272 4.92207 1.40212 4.89555C1.39681 4.8761 1.39151 4.85666 1.38444 4.83898C1.37206 4.81069 1.35792 4.78064 1.34554 4.74882C1.33671 4.72407 1.33494 4.69755 1.3261 4.6728C1.31019 4.6286 1.29604 4.58087 1.28013 4.53667C1.27129 4.50308 1.26776 4.46949 1.25715 4.4359C1.24477 4.397 1.2271 4.35811 1.21295 4.31922C1.20235 4.28739 1.20058 4.2538 1.18997 4.22198C1.17583 4.17955 1.15461 4.14066 1.14047 4.09646C1.13163 4.0611 1.13163 4.02751 1.12279 3.99392C1.09804 3.9126 1.07152 3.82244 1.04677 3.73935C1.01672 3.64565 1.01495 3.54134 0.98843 3.44764C0.968983 3.38046 0.946 3.31505 0.924785 3.24964C0.917714 3.21605 0.915946 3.18246 0.907106 3.14887C0.889427 3.07462 0.861141 2.97738 0.83639 2.8996C0.824015 2.85893 0.827551 2.8165 0.815176 2.77231C0.8028 2.72811 0.8028 2.67507 0.788657 2.62911C0.779818 2.60082 0.76921 2.57961 0.762139 2.54248C0.755067 2.50535 0.755067 2.46116 0.749763 2.43464C0.74446 2.40635 0.696727 2.24194 0.691423 2.21188C0.686119 2.18183 0.686119 2.12526 0.682583 2.10581C0.680815 2.09167 0.656065 2.02095 0.652529 2.00327C0.648993 1.98382 0.648993 1.96438 0.641922 1.92725C0.63485 1.89013 0.613635 1.81057 0.6101 1.78582C0.606564 1.76284 0.606564 1.7151 0.60126 1.69035C0.595956 1.66737 0.580045 1.61257 0.569438 1.57367C0.557063 1.52771 0.56767 1.47644 0.553527 1.43224C0.544687 1.40042 0.532312 1.36683 0.519937 1.33677C0.512865 1.31026 0.502258 1.27313 0.50049 1.25545C0.498722 1.2307 0.496954 1.17943 0.495186 1.15998C0.495186 1.13347 0.482811 1.08927 0.481043 1.05037C0.477507 0.997337 0.4669 0.940765 0.45806 0.908942C0.452757 0.889496 0.454525 0.866513 0.450989 0.848834C0.468668 0.804637 0.456292 0.756903 0.429774 0.760439C0.410327 0.763975 0.403256 0.778118 0.412095 0.813476C0.420935 0.854138 0.426238 0.88596 0.435078 0.924854C0.440381 0.946068 0.442149 0.999105 0.442149 1.01678C0.442149 1.04507 0.445685 1.05214 0.449221 1.07866C0.449221 1.08927 0.456292 1.11579 0.45806 1.12639C0.463364 1.14584 0.468668 1.17059 0.4669 1.18473C0.4669 1.20241 0.4669 1.22186 0.4669 1.24838C0.4669 1.26252 0.4669 1.26606 0.473971 1.28904C0.479275 1.31202 0.482811 1.31733 0.482811 1.33677C0.482811 1.35268 0.482811 1.3686 0.482811 1.38274C0.482811 1.40042 0.484579 1.4181 0.489883 1.43401C0.50049 1.4676 0.523473 1.51533 0.512865 1.5666C0.502258 1.61964 0.519937 1.67091 0.532312 1.71864C0.537616 1.74869 0.532312 1.78228 0.537616 1.81057C0.548223 1.85123 0.55883 1.89366 0.569438 1.93609C0.578277 1.96968 0.571206 2.0015 0.580045 2.03333C0.592421 2.07929 0.624243 2.1394 0.627778 2.16061C0.631314 2.18183 0.631314 2.23663 0.636618 2.27199C0.64369 2.30735 0.650761 2.34624 0.654297 2.36923C0.657833 2.39221 0.654297 2.40105 0.654297 2.41873C0.657833 2.43464 0.679048 2.51419 0.682583 2.53541C0.686119 2.55662 0.686119 2.56723 0.689655 2.58845C0.693191 2.60966 0.71087 2.69452 0.716173 2.72281C0.721477 2.75109 0.719709 2.767 0.723245 2.79352C0.732084 2.83595 0.747995 2.87131 0.756835 2.91197C0.762139 2.94202 0.760371 2.96147 0.763907 2.98445C0.772746 3.02158 0.785121 3.05694 0.792193 3.0923C0.797497 3.12058 0.797497 3.14887 0.8028 3.17716C0.815176 3.23903 0.824015 3.30091 0.841694 3.36102C0.852301 3.39637 0.873516 3.42996 0.884124 3.46355C0.892963 3.49538 0.894731 3.53073 0.90357 3.56079C0.91241 3.58908 0.931857 3.61383 0.938928 3.64211C0.944232 3.66686 0.942464 3.69338 0.947768 3.71813C0.95484 3.74642 0.967215 3.77647 0.972519 3.80476C0.977822 3.82774 0.974286 3.84896 0.97959 3.87194C0.98843 3.89669 1.0008 3.91967 1.00611 3.94442C1.01318 3.97624 1.01141 4.00807 1.02025 4.03989C1.02909 4.07701 1.045 4.11237 1.05738 4.14596C1.06798 4.17778 1.06268 4.21137 1.07152 4.24673C1.09274 4.32098 1.11572 4.40231 1.14047 4.47126C1.15108 4.50838 1.14931 4.54728 1.16345 4.58794C1.17229 4.61446 1.18467 4.6339 1.19527 4.65512C1.20411 4.67987 1.19527 4.70639 1.20411 4.7329C1.21649 4.7771 1.22356 4.83721 1.23947 4.88141C1.25715 4.93091 1.28544 4.97157 1.30312 5.0193C1.32079 5.07057 1.32079 5.12007 1.33847 5.17311C1.35438 5.21731 1.37737 5.25974 1.39505 5.3004C1.40919 5.33753 1.40389 5.38349 1.41803 5.42239C1.43394 5.46481 1.46223 5.49664 1.47814 5.53907C1.49582 5.58857 1.50819 5.6363 1.5241 5.6858C1.52941 5.70702 1.53294 5.72823 1.53648 5.74768C1.55416 5.81132 1.58775 5.86259 1.61073 5.92447C1.61957 5.95275 1.62134 5.9775 1.63018 6.00226C1.64609 6.04645 1.66377 6.09065 1.68321 6.13308C1.70089 6.17021 1.72387 6.20733 1.74155 6.24446C1.75747 6.27982 1.761 6.31517 1.77514 6.35053C1.78929 6.38412 1.8052 6.42302 1.81934 6.45837C1.82641 6.47959 1.82818 6.5008 1.83702 6.52025C1.87945 6.61572 1.93249 6.71295 1.97668 6.80842C1.99967 6.85969 2.01204 6.91626 2.03679 6.9693C2.05624 7.00996 2.07922 7.05062 2.09867 7.09482C2.10928 7.1231 2.11281 7.14962 2.12519 7.17614C2.14994 7.22741 2.18353 7.28045 2.20651 7.33171C2.21358 7.34409 2.23126 7.39889 2.22419 7.42011C2.22419 7.42365 2.22419 7.42718 2.21889 7.42895C2.20298 7.43249 2.17115 7.40597 2.15171 7.38829C2.08983 7.32818 2.08099 7.21503 2.03679 7.13548C2.02442 7.11426 2.01027 7.08774 1.99967 7.06476C1.99436 7.04885 1.99083 7.03294 1.98199 7.01526C1.95547 6.96399 1.92188 6.91979 1.8989 6.86676C1.88122 6.82786 1.87945 6.78367 1.86177 6.74654C1.79105 6.59627 1.7115 6.44953 1.64432 6.29926C1.6125 6.23031 1.60719 6.15253 1.57891 6.07651C1.563 6.03231 1.53648 5.99518 1.51703 5.95452C1.50112 5.9227 1.49758 5.88734 1.48344 5.85375C1.46399 5.81132 1.43571 5.77066 1.4198 5.72293C1.40919 5.69287 1.40565 5.66105 1.39328 5.631C1.37913 5.59741 1.35615 5.57089 1.34201 5.5373C1.32079 5.48957 1.31726 5.44183 1.30135 5.38879C1.29251 5.35874 1.28013 5.32869 1.27129 5.30217C1.26422 5.27742 1.26069 5.2509 1.25185 5.22615C1.23063 5.16958 1.19704 5.11831 1.17583 5.05997C1.16168 5.02107 1.16522 4.97157 1.14754 4.93268C1.1334 4.90086 1.10865 4.8761 1.09627 4.84251C1.08213 4.80892 1.09627 4.7665 1.0839 4.72583C1.07329 4.68694 1.05738 4.65158 1.045 4.61446C1.03793 4.59147 1.03616 4.56849 1.02909 4.54728C1.01141 4.49954 0.995501 4.45358 0.977822 4.40584C0.968983 4.38286 0.968983 4.35988 0.960143 4.33866C0.947768 4.31038 0.926553 4.28386 0.915946 4.2538C0.90357 4.20784 0.900035 4.16011 0.889427 4.11591C0.871748 4.0558 0.848766 4.00807 0.831087 3.94973C0.827551 3.93205 0.827551 3.91437 0.822247 3.89315C0.808104 3.84188 0.801032 3.78354 0.786889 3.73404C0.781586 3.70929 0.783353 3.68808 0.776282 3.66333C0.762139 3.61559 0.746228 3.56609 0.730317 3.52013C0.723245 3.49007 0.721477 3.46002 0.714405 3.42996C0.691423 3.35394 0.66844 3.26555 0.647225 3.1913C0.641922 3.17008 0.64369 3.15064 0.636618 3.12589C0.618939 3.06755 0.594188 2.9986 0.581813 2.93849C0.574742 2.90313 0.574742 2.87131 0.56767 2.83772C0.55883 2.79706 0.544687 2.75816 0.535848 2.71927C0.532312 2.69982 0.535848 2.68568 0.535848 2.66977C0.532312 2.64325 0.530544 2.61673 0.52524 2.59198C0.498722 2.48767 0.45806 2.35862 0.435078 2.25254C0.428006 2.21542 0.428006 2.17653 0.422702 2.1394C0.419167 2.11288 0.417399 2.08283 0.408559 2.05631C0.39972 2.02802 0.387344 1.99974 0.383809 1.97145C0.378505 1.92548 0.376737 1.88129 0.371433 1.83886C0.371433 1.83532 0.371433 1.83179 0.369666 1.82825C0.360826 1.77521 0.334308 1.6656 0.327236 1.62141C0.320164 1.56837 0.313093 1.51533 0.307789 1.46583C0.307789 1.43224 0.300718 1.39688 0.295414 1.36152C0.288342 1.30672 0.275967 1.25899 0.268895 1.20418C0.26536 1.16706 0.267127 1.13347 0.261824 1.10164C0.258288 1.0822 0.258288 1.04684 0.233537 1.04684C0.208787 1.04684 0.215858 1.08396 0.214091 1.10695C0.210555 1.16352 0.221162 1.236 0.224698 1.27136C0.23177 1.33677 0.226466 1.39865 0.233537 1.46406C0.237073 1.50119 0.249448 1.53831 0.252984 1.5719C0.261824 1.63378 0.267127 1.69742 0.275967 1.75577C0.275967 1.75577 0.275967 1.75753 0.275967 1.7593C0.277735 1.78759 0.281271 1.81411 0.286574 1.84062C0.286574 1.84239 0.286574 1.84593 0.286574 1.8477V1.85123V1.85477C0.288342 1.86714 0.291878 1.87952 0.295414 1.89189C0.302485 1.91488 0.29895 1.93432 0.306021 1.95907C0.325468 2.03156 0.321932 2.10934 0.341379 2.17829C0.369666 2.2826 0.385577 2.39751 0.413863 2.50005C0.422702 2.5301 0.413863 2.56016 0.422702 2.59198C0.431542 2.62557 0.440381 2.65739 0.447453 2.68922C0.454525 2.72811 0.447453 2.76877 0.459828 2.80766C0.468668 2.84302 0.481043 2.88192 0.489883 2.91551C0.50049 2.95794 0.502258 3.00213 0.512865 3.0481C0.527008 3.09406 0.541152 3.14533 0.549991 3.1913C0.558831 3.24434 0.564134 3.30621 0.574742 3.36102C0.583581 3.40698 0.6101 3.46355 0.620707 3.51482C0.624243 3.5325 0.620707 3.54841 0.626011 3.56609C0.633082 3.60322 0.64369 3.63858 0.650761 3.67393C0.654297 3.68985 0.652529 3.70399 0.657833 3.72167C0.675512 3.78885 0.696726 3.87371 0.717941 3.94089C0.723245 3.96033 0.725013 3.97801 0.730317 3.99746C0.74446 4.04519 0.758603 4.08055 0.763907 4.1053C0.76921 4.12828 0.770978 4.1548 0.77805 4.17955C0.786889 4.21668 0.799264 4.2485 0.806336 4.28032C0.81164 4.30507 0.815176 4.32806 0.822247 4.35281C0.831087 4.38286 0.843462 4.41115 0.855837 4.43943C0.877052 4.49954 0.87882 4.56495 0.900035 4.6233C0.91241 4.65865 0.930089 4.69224 0.940696 4.72937C0.949536 4.76296 0.953072 4.80539 0.963679 4.84251C0.983126 4.90086 1.00611 4.96804 1.02732 5.02638C1.05207 5.09532 1.06798 5.17311 1.09097 5.23852C1.09981 5.26504 1.09804 5.28979 1.10688 5.31985C1.12633 5.38526 1.14931 5.45951 1.17052 5.52669C1.1829 5.56205 1.1829 5.59564 1.19527 5.62923C1.21826 5.6858 1.25008 5.73177 1.27129 5.79011C1.28897 5.83961 1.29251 5.88734 1.31195 5.93331C1.33671 5.99518 1.36499 6.05706 1.38797 6.1207C1.40389 6.1649 1.40919 6.2091 1.42687 6.25153C1.44278 6.28689 1.46399 6.32401 1.47991 6.35937C1.49051 6.39119 1.50112 6.42302 1.5135 6.45484C1.52233 6.47959 1.54885 6.52025 1.56476 6.55207C1.58421 6.59627 1.58775 6.644 1.60543 6.68997C1.63194 6.76245 1.66553 6.83494 1.69736 6.90212C1.70973 6.92863 1.7115 6.95338 1.72211 6.98167C1.73979 7.0294 1.77161 7.06476 1.79105 7.10896C1.8105 7.15139 1.81581 7.19559 1.83348 7.23625C1.86 7.29636 1.88122 7.32641 1.88122 7.41304C1.88122 7.42011 1.87768 7.42718 1.87061 7.42895C1.8547 7.43602 1.83702 7.40773 1.82641 7.39889C1.78045 7.3547 1.77338 7.3105 1.74509 7.24862C1.70089 7.15493 1.64609 7.06653 1.60366 6.9746C1.58068 6.92687 1.57184 6.8756 1.55062 6.8261C1.53825 6.79604 1.51703 6.76599 1.50466 6.73593C1.48344 6.6935 1.4746 6.64754 1.45162 6.60864C1.4198 6.55207 1.39505 6.48489 1.3703 6.42125C1.35969 6.3965 1.35969 6.37351 1.34908 6.35053C1.33847 6.32578 1.31903 6.3028 1.30842 6.27982C1.29251 6.24092 1.2819 6.19319 1.26599 6.15253C1.23063 6.07651 1.19174 5.99695 1.16345 5.91563C1.13693 5.84138 1.12279 5.77066 1.09627 5.69641C1.08566 5.66636 1.07152 5.63276 1.06091 5.60094C1.05207 5.57266 1.05207 5.54967 1.04147 5.52316C1.01672 5.45598 0.984894 5.38349 0.956607 5.31985C0.942464 5.28802 0.938928 5.2562 0.926553 5.22261C0.91241 5.18195 0.892963 5.13599 0.87882 5.09532C0.859373 5.04229 0.857605 4.97864 0.838158 4.92207C0.793961 4.80009 0.737388 4.6728 0.700262 4.54551C0.693191 4.51545 0.694959 4.4854 0.686119 4.45534C0.664904 4.3917 0.645457 4.32098 0.624243 4.25204C0.603028 4.17602 0.604796 4.09646 0.581813 4.02221C0.551759 3.92674 0.518169 3.82597 0.488115 3.73227C0.479275 3.70399 0.482811 3.67393 0.473971 3.64388C0.452757 3.56963 0.428006 3.48477 0.405023 3.41582C0.392648 3.38223 0.392648 3.34511 0.380273 3.31328C0.364362 3.27439 0.325468 3.28853 0.329004 3.33273C0.33254 3.37162 0.344915 3.42289 0.350219 3.44411C0.355522 3.47239 0.355522 3.49891 0.360826 3.5272C0.373201 3.57847 0.389112 3.6209 0.403256 3.66863C0.419167 3.71636 0.419167 3.76233 0.43331 3.81183C0.440381 3.83658 0.450989 3.86487 0.45806 3.88785C0.473971 3.93735 0.473971 3.99039 0.489883 4.03635C0.502258 4.07171 0.512865 4.11414 0.523473 4.15303C0.530544 4.17779 0.528776 4.199 0.537616 4.22375C0.551759 4.26795 0.565902 4.31391 0.580045 4.35988C0.587117 4.3864 0.583581 4.40938 0.590653 4.43236C0.599492 4.46772 0.608332 4.50485 0.618939 4.53844C0.627779 4.57026 0.627779 4.61622 0.638386 4.64981C0.657833 4.71169 0.680815 4.77887 0.70203 4.83721C0.725013 4.90262 0.728549 4.97157 0.751531 5.03698C0.793961 5.15366 0.832855 5.28979 0.875284 5.40824C0.885891 5.4383 0.882356 5.47012 0.892963 5.50371C0.907106 5.55498 0.917714 5.60448 0.935393 5.65575C0.944232 5.6805 0.960143 5.70348 0.970751 5.72646C0.984894 5.75475 0.98843 5.78657 1.0008 5.81663C1.01141 5.83961 1.02732 5.86436 1.03616 5.88911C1.05031 5.92624 1.045 5.9722 1.05915 6.00756C1.06975 6.03585 1.08743 6.06767 1.09627 6.09772C1.10865 6.12954 1.10865 6.1649 1.12102 6.19496C1.1334 6.22147 1.15284 6.24799 1.16522 6.27451C1.17583 6.29926 1.17936 6.32578 1.18997 6.3523C1.20058 6.38059 1.21649 6.41064 1.2271 6.43716C1.24124 6.46721 1.24124 6.5008 1.25538 6.53263C1.26776 6.55914 1.28544 6.58566 1.29604 6.61395C1.30665 6.644 1.30665 6.67759 1.31726 6.70941C1.33494 6.75538 1.36499 6.79604 1.38444 6.84024C1.39858 6.87383 1.40035 6.90919 1.41626 6.94278C1.43217 6.98167 1.45692 7.0188 1.4746 7.05592C1.49758 7.10542 1.51526 7.16023 1.53648 7.20796C1.57537 7.29282 1.58775 7.38652 1.62664 7.47138C1.65493 7.53326 1.69382 7.59336 1.72211 7.65347C1.73802 7.68706 1.74332 7.72419 1.75923 7.75601C1.77691 7.79314 1.80697 7.82496 1.82464 7.86208C1.83702 7.89921 1.84763 7.93634 1.86354 7.97346C1.88475 8.02119 1.91658 8.06362 1.93779 8.10959C1.95017 8.13611 1.95547 8.16263 1.96784 8.18915C1.99083 8.24041 2.02972 8.28284 2.05447 8.33411C2.06685 8.3677 2.07922 8.40129 2.08983 8.43488C2.11458 8.48792 2.15524 8.53389 2.18176 8.59046C2.20121 8.63112 2.21358 8.67355 2.23657 8.71068C2.27369 8.76902 2.29667 8.80614 2.3338 8.86448C2.35678 8.90161 2.38684 8.95818 2.40628 8.99884C2.42573 9.0395 2.45578 9.07309 2.47523 9.11376C2.49468 9.15265 2.51766 9.19508 2.53888 9.2322C2.56186 9.27463 2.58661 9.30469 2.61313 9.34535C2.65556 9.41076 2.68208 9.47794 2.7245 9.54335C2.75456 9.58932 2.78815 9.63529 2.81997 9.67948C2.90483 9.79616 3.02681 10.0065 3.07985 10.0773C3.12228 10.1338 3.15941 10.2028 3.1983 10.2611C3.22836 10.3071 3.26725 10.3531 3.30084 10.3972C3.32913 10.4326 3.35034 10.4715 3.37686 10.5086L3.39807 10.5369C4.4924 11.9282 5.61678 12.8476 6.56791 13.4522C7.07 13.7651 7.34048 13.857 7.34048 13.857C7.40413 13.8835 7.3617 13.9295 7.32811 13.949L1.68321 17.559C1.66553 17.5714 1.62134 17.6032 1.63902 17.6386C1.65316 17.6668 1.70973 17.6509 1.72564 17.6456C6.255 16.0545 9.54328 14.748 11.5516 13.7951C13.5882 12.8281 14.2742 12.2748 14.1982 12.0007L14.1999 11.999ZM2.14817 6.65991C2.13756 6.6387 2.12342 6.61395 2.11635 6.59273C2.10751 6.56798 2.10574 6.54323 2.09513 6.52025C2.05978 6.44069 2.01911 6.35407 1.98376 6.27628C1.96784 6.24269 1.9484 6.18258 1.96254 6.14015C1.96431 6.13485 1.97668 6.14015 1.98199 6.14369C1.99436 6.15429 2.0032 6.16137 2.01204 6.17374C2.01911 6.18435 2.02088 6.19672 2.02972 6.2091C2.0474 6.23562 2.07038 6.2639 2.08453 6.29396C2.11458 6.3576 2.12165 6.43009 2.15171 6.49196C2.17115 6.53262 2.20298 6.56975 2.22419 6.61218C2.2348 6.63339 2.24187 6.65815 2.24717 6.6829C2.25248 6.70058 2.25071 6.72533 2.25248 6.73947C2.25248 6.76068 2.25248 6.77483 2.24364 6.77483C2.18883 6.77129 2.17115 6.70411 2.14994 6.66345L2.14817 6.65991ZM2.38507 8.38892C2.38507 8.38892 2.378 8.40306 2.36916 8.40306C2.30905 8.40306 2.29137 8.31113 2.26485 8.27047C2.24364 8.23688 2.22419 8.19975 2.20121 8.16439C2.1853 8.14141 2.16585 8.11489 2.15171 8.08838C2.13579 8.05302 2.12872 8.01589 2.10751 7.98584C2.0969 7.96993 2.07922 7.95578 2.06861 7.93987C2.03679 7.89567 2.00497 7.84971 1.98552 7.79314C1.98022 7.77369 1.97492 7.75424 1.96961 7.73303C1.95724 7.69944 1.94133 7.66231 1.93072 7.62695C1.92542 7.60927 1.92188 7.57215 1.92542 7.55977C1.92718 7.55447 1.93072 7.55093 1.93425 7.55093C1.98022 7.55801 2.02442 7.67115 2.0474 7.71181C2.07215 7.75601 2.11104 7.79137 2.13226 7.83733C2.15171 7.878 2.15701 7.92926 2.17999 7.96993C2.19767 7.99998 2.22596 8.02473 2.2454 8.05478C2.27016 8.09368 2.28783 8.14318 2.30728 8.18561C2.3285 8.23334 2.36032 8.27047 2.37976 8.31643C2.3886 8.33588 2.39037 8.36947 2.38507 8.39069V8.38892ZM3.65265 8.13257C3.62436 8.1308 3.61199 8.11313 3.59431 8.09898C3.54658 8.06362 3.50945 8.00882 3.50768 7.9275C3.50768 7.91866 3.50945 7.91689 3.51475 7.91689C3.56956 7.91689 3.6279 8.00175 3.64911 8.04241C3.65619 8.05478 3.67033 8.08661 3.66856 8.10959C3.66856 8.1255 3.66149 8.1308 3.65265 8.1308V8.13257ZM4.03452 8.14672C3.99739 8.16086 3.90369 8.05655 3.87894 8.01766C3.83121 7.94518 3.78347 7.86739 3.73397 7.79667C3.68801 7.73303 3.63674 7.68883 3.62436 7.58099C3.62436 7.56861 3.61553 7.53502 3.62436 7.53679C3.67563 7.54033 3.72337 7.63049 3.74989 7.66408C3.76756 7.68883 3.78878 7.71358 3.80646 7.7401C3.83121 7.77723 3.84182 7.82496 3.86833 7.86032C3.90016 7.90451 3.93905 7.94518 3.97264 7.98761C3.99032 8.01059 4.01507 8.0318 4.02744 8.06362C4.03275 8.07954 4.04866 8.14141 4.03805 8.14495L4.03452 8.14672ZM5.36574 8.8857C5.31094 8.89277 5.24906 8.81321 5.22254 8.77609C5.21547 8.76548 5.18365 8.70184 5.19249 8.69123C5.2031 8.68239 5.26674 8.7036 5.28442 8.71598C5.32508 8.7478 5.35867 8.79377 5.37812 8.87155C5.37812 8.88039 5.37105 8.88393 5.36751 8.88393L5.36574 8.8857Z" fill="white"/>
<path d="M35.8443 16.3852L32.1618 8.72839L28.504 16.3852C27.9577 17.4335 27.3513 17.4547 27.3513 17.4547L27.2965 17.5131H29.8016L29.7415 17.4547C29.7415 17.4547 29.0414 17.3168 29.4869 16.3852L30.1428 15.0345H33.2791L33.9155 16.3852C34.3575 17.3168 33.6592 17.4547 33.6592 17.4547L33.6044 17.5131H37.0518L36.9934 17.4547C36.9934 17.4547 36.357 17.4494 35.8443 16.3852ZM30.4858 14.322L31.7781 11.6065L32.9555 14.322H30.4858ZM24.1231 16.7211C22.3234 16.7211 21.0806 15.5419 21.0806 13.3886C21.0806 11.2353 22.2881 9.83156 24.1885 9.83156C26.089 9.83156 26.8704 11.3661 26.8704 11.3661L26.9164 11.4068V9.59643C26.9164 9.59643 25.7355 9.01833 24.0524 9.01833C21.0152 9.01833 19.1094 10.8888 19.1094 13.4027C19.1094 15.4252 20.6828 17.6563 23.9287 17.6563C25.1538 17.6563 26.5823 17.1701 26.5823 17.1701L27.2382 14.9266L27.1657 14.9726C27.1657 14.9726 26.1014 16.7228 24.1214 16.7228L24.1231 16.7211ZM68.1119 9.14739L68.1703 9.20396C68.1703 9.20396 68.911 9.4108 68.3524 10.2788C68.0784 10.6996 67.2545 11.8788 66.5049 13.0191C65.7518 11.8806 64.9403 10.6943 64.6681 10.2718C64.1112 9.40196 64.8537 9.20396 64.8537 9.20396L64.9085 9.14739H61.4611L61.5177 9.20396C61.5177 9.20396 62.0162 9.28705 62.6704 10.2718C62.9444 10.689 64.3446 12.6443 65.0977 13.7846V16.3869C65.0977 17.3752 64.5373 17.46 64.5373 17.46L64.4825 17.5166H67.4737L67.4154 17.46C67.4154 17.46 66.8585 17.3752 66.8585 16.3869C66.8585 15.9697 66.8532 14.9249 66.8532 13.7846C67.6063 12.6425 69.01 10.6943 69.2858 10.2788C69.9347 9.29412 70.6789 9.20396 70.6789 9.20396L70.7373 9.14739H68.1102H68.1119ZM62.2054 16.3852L58.5229 8.72839L54.8651 16.3852C54.3171 17.4335 53.7142 17.4547 53.7142 17.4547L53.6576 17.5131H56.1592L56.1044 17.4547C56.1044 17.4547 55.4043 17.3168 55.8463 16.3852L56.5022 15.0345H59.6384L60.2731 16.3852C60.7186 17.3168 60.0185 17.4547 60.0185 17.4547L59.9619 17.5131H63.4093L63.351 17.4547C63.351 17.4547 62.7146 17.4494 62.2019 16.3852H62.2054ZM56.8487 14.322L58.141 11.6065L59.3184 14.322H56.8469H56.8487ZM37.0429 9.14739C36.0547 9.14739 35.9168 9.05192 35.9168 9.05192L35.9115 10.7173L35.9698 10.6748C35.9698 10.6748 36.4206 9.95178 37.4036 9.95178H38.8091V16.3852C38.8091 17.3734 38.2522 17.4583 38.2522 17.4583L38.1938 17.5148H41.1851L41.1303 17.4583C41.1303 17.4583 40.5699 17.3734 40.5699 16.3852L40.577 9.95178H41.9488C42.9353 9.95178 43.4091 10.6748 43.4091 10.6748L43.4675 10.7173L43.471 9.05192C43.471 9.05192 43.3313 9.14739 42.3431 9.14739H37.0412H37.0429ZM52.7507 16.3887C52.7507 15.404 52.7472 11.2459 52.7472 10.2594C52.7472 9.27291 53.3058 9.20042 53.3058 9.20042L53.3642 9.14562H50.3711L50.4259 9.20042C50.4259 9.20042 50.9863 9.27114 50.9863 10.2594C50.9863 11.2476 50.9916 12.6655 50.9916 12.6655H46.8742V10.2594C46.8742 9.27291 47.4364 9.20396 47.4364 9.20396L47.4912 9.14739H44.4999L44.5583 9.20396C44.5583 9.20396 45.1169 9.27114 45.1169 10.2594V16.3887C45.1169 17.3769 44.5583 17.4618 44.5583 17.4618L44.4999 17.5184H47.4912L47.4364 17.4618C47.4364 17.4618 46.8742 17.3769 46.8742 16.3887V13.4858H50.9916V16.3887C50.9916 17.3769 50.433 17.4618 50.433 17.4618L50.3746 17.5184H53.3695L53.3111 17.4618C53.3111 17.4618 52.7507 17.3769 52.7507 16.3887Z" fill="white"/>
<path d="M87.7516 16.3854L84.0708 8.72864L80.4148 16.3854C79.8668 17.4338 79.2639 17.455 79.2639 17.455L79.2056 17.5133H81.7071L81.6541 17.455C81.6541 17.455 80.9523 17.3171 81.396 16.3854L82.0554 15.0347H85.1881L85.8263 16.3854C86.2701 17.3171 85.57 17.455 85.57 17.455L85.5152 17.5133H88.9626L88.9043 17.455C88.9043 17.455 88.2696 17.4497 87.7534 16.3854H87.7516ZM82.3966 14.3223L83.6872 11.6068L84.8664 14.3223H82.3966Z" fill="white"/>
<path d="M112.203 9.20239L112.26 9.14758H109.269L109.323 9.20239C109.323 9.20239 109.884 9.28548 109.884 10.272V16.4013C109.884 17.386 109.323 17.4691 109.323 17.4691L109.269 17.5274H112.26L112.203 17.4691C112.203 17.4691 111.643 17.386 111.643 16.4013V10.272C111.643 9.28548 112.203 9.20239 112.203 9.20239Z" fill="white"/>
<path d="M93.552 16.7213C91.7523 16.7213 90.5112 15.5421 90.5112 13.3888C90.5112 11.2355 91.7169 9.83179 93.621 9.83179C95.525 9.83179 96.3011 11.3663 96.3011 11.3663L96.3471 11.407V9.59666C96.3471 9.59666 95.1661 9.01855 93.4849 9.01855C90.4458 9.01855 88.54 10.889 88.54 13.4029C88.54 15.4254 90.1135 17.6565 93.3593 17.6565C94.5863 17.6565 96.0129 17.1703 96.0129 17.1703L96.6688 14.9269L96.5981 14.9728C96.5981 14.9728 95.5321 16.7231 93.552 16.7231V16.7213Z" fill="white"/>
<path d="M102.298 9.14759L102.351 9.20593C102.351 9.20593 102.91 9.28902 102.91 10.2737V16.3995C102.91 17.3842 102.351 17.4673 102.351 17.4673L102.298 17.5257H105.287L105.229 17.4673C105.229 17.4673 104.672 17.3842 104.672 16.3995V13.4347H106.438C107.423 13.4347 107.506 13.8679 107.506 13.8679L107.564 13.9262V12.1265L107.506 12.1848C107.506 12.1848 107.423 12.6144 106.438 12.6144H104.672V9.93784H106.795C107.784 9.93784 108.194 10.5036 108.194 10.5036L108.252 10.5478V9.05212C108.252 9.05212 108.109 9.14759 107.122 9.14759H102.3H102.298Z" fill="white"/>
<path d="M100.687 9.20239L100.742 9.14758H97.749L97.8074 9.20239C97.8074 9.20239 98.366 9.28548 98.366 10.272V16.4013C98.366 17.386 97.8074 17.4691 97.8074 17.4691L97.749 17.5274H100.742L100.687 17.4691C100.687 17.4691 100.125 17.386 100.125 16.4013V10.272C100.125 9.28548 100.687 9.20239 100.687 9.20239Z" fill="white"/>
<path d="M121.163 14.9711C121.163 14.9711 120.102 16.7213 118.117 16.7213C116.321 16.7213 115.074 15.5422 115.074 13.3889C115.074 11.2356 116.284 9.83185 118.184 9.83185C120.085 9.83185 120.866 11.3664 120.866 11.3664L120.916 11.407V9.59672C120.916 9.59672 119.729 9.01685 118.05 9.01685C115.014 9.01685 113.105 10.8908 113.105 13.403C113.105 15.4255 114.678 17.6566 117.928 17.6566C119.151 17.6566 120.578 17.1704 120.578 17.1704L121.236 14.9269L121.161 14.9729L121.163 14.9711Z" fill="white"/>
<path d="M77.634 14.5574C79.4797 14.5574 80.5811 13.1589 80.5811 11.81C80.5811 11.064 80.3053 9.73453 78.4384 9.26426C78.0211 9.15819 77.5579 9.15112 76.9498 9.15112L73.665 9.14758L73.7198 9.20239C73.7198 9.20239 74.2803 9.28548 74.2803 10.272V16.4013C74.2803 17.386 73.7198 17.4691 73.7198 17.4691L73.665 17.5274H76.6546L76.5997 17.4691C76.5997 17.4691 76.0429 17.386 76.0429 16.4013V14.2656C76.3027 14.3823 76.8296 14.5574 77.634 14.5574ZM76.0429 10.272V9.94844H76.4353C76.9162 9.94844 77.4165 9.94844 77.7153 10.0474C78.5038 10.2808 78.9033 10.8837 78.9033 11.8313C78.9033 12.6056 78.4101 13.7547 77.0506 13.7547C76.6581 13.7547 76.2479 13.5991 76.0429 13.5055V10.272Z" fill="white"/>
</svg>
