<svg width="1440" height="573" viewBox="0 0 1440 573" fill="none" xmlns="http://www.w3.org/2000/svg">
<g opacity="0.08" clip-path="url(#clip0_644_457)">
<path d="M806.443 560.468C802.462 560.176 799.171 558.694 795.262 558.054C785.527 556.453 773.838 558.169 763.844 558.169H735.995C728.86 558.169 717.394 560.648 711.432 556.029C705.071 551.1 703.415 542.38 697.676 537.369C684.889 526.195 677.984 544.564 665.417 542.804C659.675 542.002 660.143 538.405 658.793 533.343C657.95 530.185 657.454 528.015 656.057 524.81C653.918 519.907 654.97 515.561 650.113 512.611C646.607 510.478 641.102 510.996 637.178 511.107C634.95 511.172 631.318 512.025 629.298 510.909C626.033 509.107 626.828 503.33 624.755 500.556C621.954 496.804 611.05 491.8 606.492 490.141C602.755 488.782 599.393 488.541 595.433 488.692C592.24 488.81 586.714 488.429 584.366 491.264C581.634 494.563 585.079 501.441 581.141 504.794C572.764 511.931 562 500.811 553.082 502.045C548.485 502.682 548.618 504.596 544.619 506.366C539.14 508.787 531.083 505.61 529.24 499.912C528.084 496.333 528.97 492.419 526.784 488.616C525.326 486.08 522.806 482.141 520.607 480.227C514.57 474.971 503.37 477.662 496.058 477.54C489.974 477.439 480.982 480.637 481.655 488.393C473.918 490.415 463.795 488.67 455.778 488.731C441.4 488.839 426.614 482.982 416.264 472.759C413.806 470.33 409.738 463.779 406.814 462.25C402.509 459.995 394.031 461.847 389.225 461.851C378.515 461.862 367.718 462.25 357.019 461.901C348.152 461.614 338.029 459.095 329.706 456.038C324.644 454.178 321.084 453.437 315.943 452.498C309.085 451.242 303.746 446.256 297.281 444.252C294.8 443.483 292.478 443.666 290.12 442.605C288.634 441.936 286.981 440.425 285.57 439.644C283.018 438.23 280.505 438.036 277.87 437.327C273.427 436.137 268.974 434.291 264.665 432.787C258.962 430.802 253.57 424.628 247.151 424.833C244.804 428.226 246.521 432.079 249.376 434.719C252.382 437.496 253.757 436.352 257.414 437.705C261.976 439.392 264.791 445.979 271.634 444.4C271.609 444.371 271.577 444.346 271.552 444.317L273.172 443.936C272.635 444.137 272.128 444.288 271.634 444.4C274.55 447.684 279.274 449.864 282.697 452.656C287.428 456.512 290.592 461.499 295.996 464.261C299.869 466.244 300.564 467.672 303.516 470.776C305.24 472.589 309.841 474.525 311.522 475.665C315.328 478.248 318.64 481.608 322.65 483.925C327.856 486.932 335.128 490.634 341.129 491.152C347.976 491.739 354.247 490.4 360.342 494.34C368.626 499.696 378.86 503.006 387.943 507.053C392.483 509.075 396.119 512.284 400.91 514.039C404.42 515.324 408.103 516.428 411.527 517.795C419.195 520.853 427.684 524.698 435.658 526.627C439.564 527.573 442.908 527.357 446.882 529.055C451.123 530.865 454.428 530.674 458.618 532.232C460.778 533.034 462.449 535.516 464.836 536.451C466.834 537.236 469.17 537.376 471.229 538.056C475.679 539.531 479.938 539.408 484.247 540.689C491.4 542.815 497.549 546.003 505.112 547.521C515.052 549.514 524.675 551.14 534.535 553.683C543.258 555.932 552.265 557.076 560.902 559.849C571.381 563.209 581.562 562.695 592.538 562.652C602.219 562.612 611.197 564.152 620.669 566.033C631.48 568.181 642.341 565.904 653.004 569.095C670.77 574.412 691.549 571.609 710.057 571.609H757.681C767.628 571.609 777.722 572.951 786.841 569.368C792.086 567.307 796.788 567.156 802.264 567.188C805.306 567.206 816.264 567.451 816.523 562.598C813.532 559.374 810.169 560.745 806.436 560.468H806.443Z" fill="white"/>
<path d="M251.302 371.062C246.215 364.292 244.89 356.896 238.172 350.917C233.071 346.373 225.18 343.83 221.249 338.937C219.816 337.153 219.323 333.081 217.775 330.879C215.834 328.12 212.782 326.893 211.284 323.533C208.53 317.353 211.518 308.999 210.485 302.402C209.426 295.638 207.533 286.627 204.908 280.191C203.072 275.687 198.99 267.999 195.667 264.456C193.702 262.358 188.816 261.106 187.366 258.764C185.353 255.516 187.441 250.426 186.775 246.864C185.382 239.414 180.209 234.687 180.076 226.672C179.928 217.926 179.932 214.721 173.765 208.192C163.804 197.644 166.244 182.542 166.514 168.796C166.709 158.96 166.475 155.37 158.468 147.852C153.029 142.743 146.038 144.189 141.095 139.394C142.085 134.408 154.67 129.145 158.972 125.864C165.701 120.734 172.897 115.352 173.653 106.463C174.906 91.7098 154.58 86.4935 152.68 73.129C150.721 59.3579 158.112 41.3707 148.061 30.1143C142.268 23.6281 136.422 14.5589 130.007 8.77783C124.992 4.25584 117.824 1.57934 110.642 -0.00354004H99.0432C99.6408 2.73412 97.65 2.32761 94.5288 -0.00354004H0V253.505C9.9072 261.585 19.1772 270.337 30.8448 275.82C32.1912 277.662 33.9948 278.982 36.2628 279.774C38.9052 280.159 41.5476 280.561 44.1828 280.986C48.006 282.939 48.5496 287.116 51.4008 289.688C56.0556 293.883 60.0084 294.466 64.62 299.833C68.2704 304.082 70.5204 305.096 74.6676 308.035C85.6584 315.824 98.7804 329.814 112.234 332.552C107.636 327.422 106.11 320.227 101.948 314.676C98.5032 310.075 94.1112 306.229 89.9316 302.297C80.2548 293.196 77.4396 277.259 75.7584 264.179C81.0324 267.373 85.14 271.32 90.7272 274.424C96.5268 277.647 102.013 281.964 108.09 284.778C118.966 289.814 127.757 298.139 137.128 306.736C147.028 315.82 153.806 327.476 163.634 336.52C173.038 345.172 183.816 350.341 195.185 355.928C204.89 360.695 213.858 365.443 222.516 370.872C228.161 374.412 232.315 378.444 238.172 381.279C241.301 382.794 245.398 383.017 248.062 384.315C253.397 386.916 257.922 390.712 263.239 393.518C266.886 395.442 271.346 396.77 274.691 398.759C275.724 399.374 276.703 400.029 277.661 400.702L266.738 385.24C261.191 380.847 255.427 376.548 251.298 371.055L251.302 371.062Z" fill="white"/>
<path d="M265.241 188.593C262.332 177.246 265.072 164.781 259.744 153.37C256.079 145.52 252.479 142.142 252.752 133.21C252.868 129.469 253.091 126.648 251.752 123.029C250.542 119.763 248.54 118.468 248.119 114.723C247.374 108.132 248.353 101.117 248.231 94.4654C248.105 87.5547 250.895 82.8096 252.878 76.4386C253.962 72.9562 255.456 69.366 255.067 65.3836C254.524 59.8399 251.352 55.3719 249.952 49.8211C247.745 41.0721 248.018 37.5825 253.382 30.0819C256.075 26.3153 259.006 23.7503 261.9 20.2752C264.787 16.8073 264.352 11.868 267.444 8.36766C269.219 6.36029 271.832 5.58324 273.283 3.5291C274.064 2.42468 274.532 1.23752 274.835 0H182.128C182.794 4.74144 184.475 9.28501 187.358 12.4148C192.262 17.739 197.651 20.4299 201.193 26.8262C203.774 31.4849 208.994 35.291 209.869 40.8274C211.601 51.7745 209.264 64.4123 209.628 75.5464C209.725 78.5467 209.696 80.7267 210.888 83.5939C212.231 86.8244 215.737 89.0188 216.612 92.0911C217.372 94.7604 216.194 98.4334 216.353 101.193C216.634 106.067 217.804 107.949 220.439 112.445C224.471 119.331 228.211 127.875 230.116 135.501C231.422 140.729 234.04 145.247 234.601 150.514C234.918 153.482 236.16 155.528 236.682 158.356C237.11 160.684 236.498 162.954 236.959 165.285C238.126 171.174 245.84 175.969 249.916 180.254C251.849 182.286 254.351 183.858 255.755 186.359C257.058 188.683 256.403 190.722 257.126 192.971C259.733 201.061 266.407 208.206 270.515 215.689C273.661 221.423 276.181 227.65 279.99 233.014C280.962 234.384 284.695 237.881 288.277 241.421C284.144 233.478 281.873 225.373 277.672 217.649C272.473 208.094 267.833 198.727 265.237 188.593H265.241Z" fill="white"/>
<path d="M1440 0H1246.86C1246.65 2.03616 1246.54 4.07951 1246.56 6.13005C1246.6 9.2994 1245.88 13.0264 1246.44 16.1238C1247.08 19.6133 1248.67 21.9085 1248.88 25.5814C1249.38 34.0462 1251.18 47.6014 1247.78 55.2352C1245.64 60.0234 1244.38 61.4408 1244.25 67.1608C1244.12 72.5425 1245.22 76.9746 1246.26 82.2592C1247.21 87.123 1249.69 90.8859 1250.86 95.5338C1251.59 98.4406 1251.56 100.732 1252.64 103.603C1254.31 108.053 1257.73 111.809 1258.19 116.69C1258.73 122.356 1259.22 133.462 1256.61 138.279C1253.14 144.711 1243.96 144.959 1237.6 148.01C1233.54 149.956 1225.75 151.381 1223.1 155.197C1219.01 161.076 1221 174.829 1221.73 181.261C1222.6 188.898 1226.71 196.69 1231.59 202.587C1234.25 205.796 1238.03 207.976 1240.41 211.318C1234.2 219.232 1225.44 223.121 1215.52 224.42C1210.71 225.049 1206.48 224.265 1202.31 227.431C1197.4 231.154 1193.99 239.669 1191.15 245.026C1186.83 253.17 1178.84 257.905 1176.69 267.096C1175.67 271.427 1177.29 276.428 1175.37 280.356C1173.83 283.504 1169.21 284.839 1166.7 286.925C1163.97 289.195 1161.6 291.627 1158.64 293.919C1153.46 297.919 1151.14 299.505 1145.02 301.128C1140.4 302.355 1136.11 303.42 1131.59 304.456C1124.95 305.981 1111 310.399 1108.63 317.604C1112.18 320.716 1124.92 318.496 1129.71 318.496C1135.34 318.496 1140.97 318.471 1146.6 318.496C1152.41 318.522 1157.38 319.191 1162.45 315.917C1166.97 313.01 1169.28 309.258 1174.52 307.064C1178.36 305.456 1183.08 304.528 1187.12 303.366C1194.12 301.358 1201.7 297.836 1208.2 294.433C1213.61 291.602 1220.81 290.145 1225.81 286.328C1232.49 281.245 1235.54 272.528 1244.21 269.672C1247.57 268.567 1250.22 269.096 1253.48 267.092C1255.5 265.848 1258.28 263.563 1260.13 262.16C1266.18 257.559 1269.23 249.023 1276.03 245.044C1279.84 242.821 1283.91 243.353 1287.8 241.572C1292.02 239.633 1296.1 234.446 1300.1 231.686C1303.77 229.15 1306.71 226.977 1310.97 225.456C1317.64 223.074 1322.63 220.509 1328.2 216.624C1335.63 211.436 1342.79 205.774 1350.65 201.292C1356.59 197.899 1358.82 192.032 1362.91 186.776C1366.86 181.678 1368.56 176.415 1371.85 171.051C1372.87 169.404 1375.82 166.997 1377.22 165.144C1379.63 161.971 1382.12 158.835 1384.62 155.73C1388.44 166.364 1381.49 180.067 1385.08 190.704C1387.1 193.348 1389.52 195.586 1392.35 197.417C1395.6 199.716 1397.96 202.669 1399.43 206.278C1401.75 209.249 1403.74 209.012 1404.59 212.814C1405.97 218.987 1399.33 225.596 1396.77 230.625C1394.42 235.269 1393.93 239.299 1393.99 244.472C1394.09 252.57 1392.25 263.15 1394.38 271.025C1402.05 271.726 1401.71 281.061 1401.07 286.972C1399.95 297.2 1392.71 302.344 1384.39 306.801C1377.34 310.582 1364.54 311.593 1360.23 318.881C1358.65 321.569 1359.06 326.609 1357.84 329.778C1355.82 334.991 1352.37 339.121 1348.66 343.247C1343.76 348.711 1338.98 357.205 1332.95 361.115C1326.49 365.306 1319.17 371.339 1312.42 374.555C1304.53 378.318 1298.58 384.197 1290.23 387.877C1280.14 392.316 1272.06 399.935 1261.52 403.824C1270.19 403.738 1276.42 403.328 1284.41 399.626C1288.5 397.734 1291.58 397.259 1295.95 396.345C1298.48 395.816 1303.23 394.557 1305.49 393.6C1309.43 391.928 1314.18 390.683 1317.86 388.823C1321.29 387.085 1322.36 386.571 1325.97 385.769C1328.29 385.254 1330.44 384.283 1332.66 383.502C1340.35 380.79 1343.91 375.732 1350.82 371.71C1358 367.533 1365.82 364.875 1373.81 362.687C1383.06 360.155 1393.04 359.227 1400.77 353.78C1406.73 349.582 1414.4 346.528 1421.62 345.384C1427.61 344.434 1433.81 343.34 1440 341.981V0H1440Z" fill="white"/>
</g>
<defs>
<clipPath id="clip0_644_457">
<rect width="1440" height="572.347" fill="white"/>
</clipPath>
</defs>
</svg>
