<svg width="42" height="28" viewBox="0 0 42 28" fill="none" xmlns="http://www.w3.org/2000/svg">
<path d="M2.81384 0H39.5828C40.314 0 40.9688 0.346752 41.412 0.891199L24.5077 12.879L24.4533 12.9198C22.0743 14.8319 18.8835 12.8664 18.848 12.8439L0.654281 1.41525C1.05201 0.577396 1.86942 0 2.81384 0Z" fill="white"/>
<path d="M39.5828 27.7359H2.81386C1.4806 27.7359 0.396118 26.5879 0.396118 25.1763V4.02135L17.694 14.8873C17.8137 14.9636 19.7099 16.1482 22.0152 16.1482C23.2251 16.1482 24.548 15.8219 25.7856 14.8381L42 3.33988V25.1769C42 26.5879 40.9161 27.7359 39.5828 27.7359Z" fill="white"/>
</svg>
