<svg width="26" height="29" viewBox="0 0 26 29" fill="none" xmlns="http://www.w3.org/2000/svg">
<path d="M16.25 24.283C16.25 26.0049 14.7773 29.0006 13 29.0006C11.1719 29.0006 9.75 26.0049 9.75 24.283L9.75 18.4124L0.817581 13.3524C0.309768 13.0654 1.35958e-06 12.5317 1.38489e-06 11.9527L1.50857e-06 9.12311C1.5319e-06 8.58941 0.517971 8.20173 1.03594 8.34774L9.75 10.8148L9.75 5.63901L6.825 3.46396C6.62188 3.31292 6.5 3.07124 6.5 2.8195L6.5 0.704875C6.5 0.312158 6.81992 -8.38405e-07 7.21094 -8.21313e-07C7.27695 -8.18427e-07 7.34297 0.0100688 7.40899 0.0251733L13 1.61114L18.591 0.0251738C18.657 0.00503451 18.723 -3.18092e-07 18.7891 -3.15207e-07C19.1852 -2.97892e-07 19.5 0.317194 19.5 0.704876L19.5 2.8195C19.5 3.07124 19.3781 3.31292 19.175 3.46396L16.25 5.63901L16.25 10.8198L24.9641 8.35278C25.482 8.20173 26 8.58942 26 9.12311L26 11.9527C26 12.5317 25.6852 13.0654 25.1824 13.3524L16.25 18.4124L16.25 24.283Z" fill="#C0B498"/>
</svg>
